<?xml version="1.0" encoding="UTF-8"?>
<!DOCTYPE svg PUBLIC "-//W3C//DTD SVG 1.1//EN" "http://www.w3.org/Graphics/SVG/1.1/DTD/svg11.dtd">
<svg xmlns="http://www.w3.org/2000/svg" version="1.1" width="96px" height="96px" style="shape-rendering:geometricPrecision; text-rendering:geometricPrecision; image-rendering:optimizeQuality; fill-rule:evenodd; clip-rule:evenodd" xmlns:xlink="http://www.w3.org/1999/xlink">
<g><path style="opacity:0.842" fill="#3265ff" d="M 45.5,0.5 C 50.997,0.327969 55.497,2.32797 59,6.5C 62.0677,11.964 64.5677,17.6307 66.5,23.5C 74.1053,23.822 81.4387,25.322 88.5,28C 95.2026,34.506 96.0359,41.6726 91,49.5C 87.3333,53.1667 83.6667,56.8333 80,60.5C 79.9993,66.6777 80.4993,72.8444 81.5,79C 81.1648,88.3362 76.3314,93.5029 67,94.5C 60.3634,91.9337 53.8634,88.9337 47.5,85.5C 41.1366,88.9337 34.6366,91.9337 28,94.5C 18.6686,93.5029 13.8352,88.3362 13.5,79C 14.5007,72.8444 15.0007,66.6777 15,60.5C 11.3333,56.8333 7.66667,53.1667 4,49.5C -1.55736,39.5078 0.60931,31.6744 10.5,26C 16.4637,24.8391 22.4637,24.0058 28.5,23.5C 30.7224,15.8883 34.3891,9.055 39.5,3C 41.6115,2.15532 43.6115,1.32198 45.5,0.5 Z M 45.5,12.5 C 47.1439,12.2865 48.6439,12.6198 50,13.5C 53.1185,20.239 56.6185,26.739 60.5,33C 67.4387,34.6107 74.4387,35.944 81.5,37C 82.1667,38 82.8333,39 83.5,40C 78.3333,45.8333 73.1667,51.6667 68,57.5C 68.1713,64.539 69.0046,71.539 70.5,78.5C 70.7105,81.1238 69.5439,82.7905 67,83.5C 60.8547,79.5105 54.3547,76.1771 47.5,73.5C 40.3622,76.7424 33.3622,79.909 26.5,83C 25.0564,81.874 24.3898,80.374 24.5,78.5C 25.9954,71.539 26.8287,64.539 27,57.5C 22.7002,52.1988 18.0336,47.1988 13,42.5C 12.2571,40.5594 12.4238,38.7261 13.5,37C 20.5613,35.944 27.5613,34.6107 34.5,33C 38.5462,26.41 42.2128,19.5766 45.5,12.5 Z"/></g>
<g><path style="opacity:0.837" fill="#adc8ff" d="M 36.5,51.5 C 38.1992,51.3398 39.8659,51.5065 41.5,52C 43.0773,54.0791 45.0773,55.5791 47.5,56.5C 49.9227,55.5791 51.9227,54.0791 53.5,52C 59.6667,50.8333 62.1667,53.3333 61,59.5C 55.8033,67.5751 48.6366,69.7418 39.5,66C 35.0728,63.3154 33.2395,59.4821 34,54.5C 34.6979,53.3094 35.5313,52.3094 36.5,51.5 Z"/></g>
</svg>
